<svg width="240" height="327" xmlns="http://www.w3.org/2000/svg" xmlns:xlink="http://www.w3.org/1999/xlink" xml:space="preserve" overflow="hidden"><defs><clipPath id="clip0"><rect x="2080" y="1074" width="240" height="327"/></clipPath></defs><g clip-path="url(#clip0)" transform="translate(-2080 -1074)"><path d="M2263.76 1367.53 2263.76 1399.91 2274.81 1399.91 2274.81 1368.17C2274.81 1363.75 2278.37 1360.16 2282.78 1360.15L2287.88 1360.15 2287.88 1349.58 2282.23 1349.58C2272.29 1349.66 2264.17 1357.56 2263.76 1367.53ZM2304.67 1381.29 2304.67 1360.11 2316.88 1360.11 2316.88 1349.52 2304.67 1349.52 2304.67 1339.59 2293.58 1339.59 2293.58 1381.88C2293.99 1391.87 2302.11 1399.78 2312.06 1399.87L2317.71 1399.87 2317.71 1389.3 2312.61 1389.3C2308.23 1389.26 2304.69 1385.69 2304.67 1381.29ZM2180 1348.57C2174.52 1348.59 2169.34 1351.07 2165.87 1355.32 2162.4 1351.07 2157.22 1348.6 2151.75 1348.58 2142.11 1348.57 2134.16 1356.12 2133.62 1365.78L2133.62 1399.91 2144.74 1399.91 2144.74 1367.18C2144.61 1362.84 2148 1359.21 2152.32 1359.08 2152.39 1359.07 2152.46 1359.07 2152.53 1359.07 2156.14 1359.07 2160.38 1361.51 2160.38 1368.48L2160.38 1399.91 2171.45 1399.91 2171.45 1368.45C2171.45 1362 2175.49 1359.07 2179.25 1359.07 2183.44 1358.92 2186.96 1362.2 2187.11 1366.4 2187.12 1366.66 2187.12 1366.92 2187.1 1367.18L2187.1 1399.91 2198.15 1399.91 2198.15 1365.86C2197.65 1356.16 2189.67 1348.56 2180 1348.57ZM2230.64 1348.7C2216.6 1348.62 2205.15 1359.99 2205.07 1374.09 2205.07 1374.29 2205.07 1374.48 2205.07 1374.68 2205.07 1389.92 2215.92 1400.96 2230.85 1400.96 2236.21 1401.12 2241.38 1399.02 2245.12 1395.17L2245.12 1399.91 2256.18 1399.91 2256.18 1374.89C2256.18 1359.69 2245.41 1348.7 2230.64 1348.7ZM2230.78 1390.29C2222.29 1390.51 2215.23 1383.78 2215.01 1375.26 2214.79 1366.73 2221.49 1359.64 2229.98 1359.42 2238.47 1359.2 2245.53 1365.93 2245.75 1374.45 2245.75 1374.57 2245.75 1374.68 2245.75 1374.79 2245.75 1383.91 2239.62 1390.29 2230.78 1390.29ZM2107.79 1369.8C2097.06 1368.55 2094.92 1366.62 2094.92 1363.68 2094.92 1359.03 2101.98 1358.44 2105.02 1358.44 2110.25 1358.47 2115.3 1360.35 2119.3 1363.74L2126.36 1356.65C2123.54 1354.3 2116.79 1348.65 2103.38 1348.65 2089.97 1348.65 2083.02 1356.7 2083.02 1364.32 2083.02 1373.33 2089.98 1378.51 2104.33 1380.03 2110.34 1380.68 2114.91 1381.53 2114.91 1385.71 2114.91 1393.48 2095.51 1392.7 2087.74 1384.06L2080 1391.82C2086.36 1397.67 2094.66 1400.94 2103.28 1401 2119.43 1401 2126.77 1393.06 2126.77 1385.62 2126.83 1376.36 2120.78 1371.31 2107.79 1369.8ZM2250.99 1281.44C2285.08 1260.15 2320 1199.57 2320 1185.93 2320 1172.29 2285.08 1111.75 2250.99 1090.43 2249.94 1089.65 2248.45 1089.88 2247.68 1090.94 2247.4 1091.32 2247.24 1091.78 2247.22 1092.24L2247.22 1279.54C2247.23 1280.85 2248.3 1281.91 2249.61 1281.9 2250.11 1281.9 2250.59 1281.73 2250.99 1281.44ZM2188.62 1297.77 2191.44 1297.77C2205.25 1297.81 2218.94 1295.23 2231.8 1290.17 2233.34 1289.61 2234.36 1288.12 2234.34 1286.47L2234.34 1230.66C2234.32 1229.5 2233.36 1228.57 2232.21 1228.6 2232.01 1228.6 2231.81 1228.63 2231.61 1228.7 2219.61 1233.61 2209.49 1238.29 2192.06 1238.29 2163.28 1238.29 2139.94 1214.85 2139.94 1185.93 2139.94 1157.02 2163.28 1133.58 2192.06 1133.58 2209.49 1133.58 2219.61 1138.26 2231.61 1143.15 2232.7 1143.52 2233.87 1142.93 2234.23 1141.84 2234.3 1141.64 2234.34 1141.42 2234.34 1141.21L2234.34 1085.35C2234.36 1083.71 2233.34 1082.23 2231.8 1081.66 2218.96 1076.58 2205.28 1073.98 2191.48 1074L2188.66 1074C2128.36 1075.55 2080.29 1125.1 2080.31 1185.68L2080.31 1186.09C2080.3 1246.65 2128.34 1296.18 2188.61 1297.77Z" fill-rule="evenodd"/></g></svg>